# xmcd
#
# Track frame offsets: 
#        150
#        29157
#        52410
#        73845
#        98812
#        120555
#        145980
#        166990
#        181890
#        201760
#        222272
#        245167
#        265005
#        287562
#        305630
#        327860
#
# Disc length: 4630 seconds
#
# Revision: 10
# Processed by: cddbd v1.5.2PL0 Copyright (c) Steve Scherf et al.
# Submitted via: ExactAudioCopy v0.99pb5
#
DISCID=00121410
DTITLE=Michael Jackson - Invincible (2010 Japan Mini LP)
DYEAR=2001
DGENRE=Pop
TTITLE0=Unbreakable
TTITLE1=Heartbreaker
TTITLE2=Invincible
TTITLE3=Break Of Dawn
TTITLE4=Heaven Can Wait
TTITLE5=You Rock My World
TTITLE6=Butterflies
TTITLE7=Speechless
TTITLE8=2000 Watts
TTITLE9=You Are My Life
TTITLE10=Privacy
TTITLE11=Don't Walk Away
TTITLE12=Cry
TTITLE13=The Lost Children
TTITLE14=Whatever Happens
TTITLE15=Threatened
EXTD=YEAR: 2001
EXTT0=
EXTT1=
EXTT2=
EXTT3=
EXTT4=
EXTT5=
EXTT6=
EXTT7=
EXTT8=
EXTT9=
EXTT10=
EXTT11=
EXTT12=
EXTT13=
EXTT14=
EXTT15=
PLAYORDER=
